<svg width="15" height="13" viewBox="0 0 15 13" fill="none" xmlns="http://www.w3.org/2000/svg">
<path fill-rule="evenodd" clip-rule="evenodd" d="M0.5 6.5C0.5 6.08579 0.835786 5.75 1.25 5.75L11.8879 5.75L7.73017 1.79062C7.43159 1.50353 7.42228 1.02875 7.70937 0.730167C7.99647 0.431589 8.47125 0.422279 8.76983 0.709374L14.2698 5.95937C14.4169 6.10078 14.5 6.29599 14.5 6.5C14.5 6.70401 14.4169 6.89922 14.2698 7.04062L8.76983 12.2906C8.47125 12.5777 7.99647 12.5684 7.70937 12.2698C7.42228 11.9713 7.43159 11.4965 7.73017 11.2094L11.8879 7.25L1.25 7.25C0.835786 7.25 0.5 6.91421 0.5 6.5Z" fill="white"/>
</svg>
